<?xml version="1.0" encoding="UTF-8" standalone="no"?>
<svg
   xmlns:dc="http://purl.org/dc/elements/1.1/"
   xmlns:cc="http://creativecommons.org/ns#"
   xmlns:rdf="http://www.w3.org/1999/02/22-rdf-syntax-ns#"
   xmlns:svg="http://www.w3.org/2000/svg"
   xmlns="http://www.w3.org/2000/svg"
   xmlns:sodipodi="http://sodipodi.sourceforge.net/DTD/sodipodi-0.dtd"
   xmlns:inkscape="http://www.inkscape.org/namespaces/inkscape"
   inkscape:version="1.0rc1 (09960d6, 2020-04-09)"
   sodipodi:docname="template-inkscape.svg"
   inkscape:export-ydpi="48"
   inkscape:export-xdpi="48"
   inkscape:export-filename="/Users/tadas/mygo/mysterium-vpn-desktop/static/tray/macOS/TadasTemplate.png"
   id="svg8"
   version="1.1"
   viewBox="0 0 11.641667 11.641667"
   height="44"
   width="44">
  <defs
     id="defs2" />
  <sodipodi:namedview
     inkscape:snap-global="false"
     inkscape:snap-bbox="true"
     inkscape:window-maximized="1"
     inkscape:window-y="23"
     inkscape:window-x="1680"
     inkscape:window-height="1395"
     inkscape:window-width="2560"
     inkscape:pagecheckerboard="true"
     units="px"
     showgrid="false"
     inkscape:document-rotation="0"
     inkscape:current-layer="layer1"
     inkscape:document-units="mm"
     inkscape:cy="21.842565"
     inkscape:cx="3.6292612"
     inkscape:zoom="12.06"
     inkscape:pageshadow="2"
     inkscape:pageopacity="0.0"
     borderopacity="1.0"
     bordercolor="#666666"
     pagecolor="#ffffff"
     id="base" />
  <metadata
     id="metadata5">
    <rdf:RDF>
      <cc:Work
         rdf:about="">
        <dc:format>image/svg+xml</dc:format>
        <dc:type
           rdf:resource="http://purl.org/dc/dcmitype/StillImage" />
        <dc:title></dc:title>
      </cc:Work>
    </rdf:RDF>
  </metadata>
  <g
     id="layer1"
     inkscape:groupmode="layer"
     inkscape:label="Layer 1">
    <path
       sodipodi:nodetypes="sccscccccccccsccccccccscc"
       inkscape:connector-curvature="0"
       d="m 3.9501917,2.6458345 c -0.033503,-1.284e-4 -0.066778,0.012349 -0.092372,0.036949 L 0.03884599,6.3449625 C 0.01417789,6.3685429 2.2820597e-4,6.4010345 2.5483317e-6,6.4344919 -2.2468253e-4,6.4681767 0.01355181,6.5004442 0.0378986,6.5244948 l 1.884381,1.855959 c 0.050676,0.049848 0.1335299,0.050151 0.1847432,9.166e-4 L 3.9227172,6.6396026 5.7147266,8.4041377 c 0.011096,0.010698 0.024129,0.019452 0.037896,0.025584 0.048395,0.022687 0.1080058,0.015107 0.1482682,-0.023687 L 7.7165852,6.664234 9.5085948,8.4287685 c 0.025428,0.025034 0.058878,0.037684 0.092372,0.037895 0.033339,2.127e-4 0.066605,-0.01177 0.092372,-0.036474 l 1.9094872,-1.8318 c 0.02451,-0.023579 0.03861,-0.055368 0.03884,-0.089053 2.01e-4,-0.033685 -0.01324,-0.06596 -0.03742,-0.090003 L 7.8350106,2.7074155 C 7.7843117,2.6576488 7.7014807,2.6577437 7.6502673,2.7069304 7.034705,3.2966771 6.3908496,3.9146582 5.8345729,4.4477803 L 4.0425635,2.6832454 C 4.017148,2.6583726 3.9836952,2.6459628 3.9501917,2.6458345 Z M 0.31548713,6.4363867 c -0.21032306,-4.1439329 -0.10516152,-2.0719665 0,0 z"
       style="fill:#000000;fill-opacity:0.5;stroke:none;stroke-width:0.025538;stroke-opacity:1"
       id="path86" />
  </g>
</svg>
