<svg width="600" height="600" xmlns="http://www.w3.org/2000/svg">
    <defs>
        <linearGradient y2="0.933085" x2="0.43444" y1="0.066915" x1="0.934524" id="SVGID_1_">
            <stop stop-color="#282560" offset="0"/>
            <stop stop-color="#51235F" offset="0.2329"/>
            <stop stop-color="#D21C5C" offset="0.989"/>
        </linearGradient>
    </defs>
    <g>
        <rect fill="none" height="402" width="582" y="-1" x="-1"/>
    </g>
    <g>
        <circle fill="url(#SVGID_1_)" r="271.028992" cy="300" cx="300"/>
        <path fill="#FFFFFF"
              d="m523.224985,333.054825l-146.45,-146.48c-1.97,-1.964 -5.178,-1.952 -7.142,0.015l-69.624,69.624l-69.63,-69.639c-1.975,-1.964 -5.179,-1.952 -7.142,0.015l-146.45,146.453c-0.946,0.943 -1.479,2.227 -1.479,3.556c0,1.338 0.533,2.622 1.479,3.571l73.228,73.231c1.969,1.967 5.166,1.967 7.13,0l69.636,-69.639l69.63,69.639c0.431,0.422 0.928,0.763 1.461,1.003c1.874,0.889 4.173,0.563 5.717,-0.988l69.642,-69.636l69.63,69.636c0.988,0.988 2.275,1.476 3.568,1.476c1.287,0 2.574,-0.488 3.562,-1.476l73.234,-73.234c0.94,-0.943 1.467,-2.218 1.467,-3.556c-0.001,-1.338 -0.527,-2.622 -1.467,-3.571zm-13.416,6.286l-39.278,-14.709l-18.151,-40.415l9.07,1.323l51.083,51.087l-2.724,2.714zm-22.54,22.548l-10.919,-24.314l25.629,9.602l-14.71,14.712zm-289.367,-95.318l-56.537,16.149l56.729,-56.732l-0.192,40.583zm-71.211,30.819l41.188,-11.763l-3.281,47.671l-49.384,-24.434l11.477,-11.474zm51.491,-14.703l5.418,-1.545l19.426,31.199l-29.095,32.256l4.251,-61.91zm31.867,21.869l-16.373,-26.29l8.944,-2.562l24.377,10.078l-16.948,18.774zm-2.072,-37.536l0.078,-17.394l56.136,4.595l15.17,42.313l-71.384,-29.514zm49.378,55.863l19.121,11.976l1.826,46.171l-26.395,-26.398l5.448,-31.749zm1.849,-10.736l2.089,-12.177l47.504,19.645l10.644,30.265l-60.237,-37.733zm59.824,6.184l27.676,-13.874l-20.546,34.135l-7.13,-20.261zm12.291,-17.43l5.484,-40.302l34.142,20.435l-39.626,19.867zm50.299,-25.109l-54.304,-32.501l12.632,-12.699l50.269,17.791l4.945,20.583l-13.542,6.826zm23.815,1.552l10.405,1.524l11.003,104.283l-29.843,-29.849l8.435,-75.958zm20.701,3.029l14.416,2.104l15.541,34.596l-21.923,39.44l-8.034,-76.14zm23.384,-6.768l-44.42,-6.498l-12.033,-49.985l56.453,56.483zm-76.311,-76.344l6.226,6.232c0.012,0.066 0.012,0.135 0.03,0.2l7.932,32.968l-39.56,-14.024l25.372,-25.376zm-69.63,69.636l16.385,-16.382l7.435,4.454l-7.004,51.407l-7.788,3.906l-20.672,-8.546l-21.983,-61.336l26.497,26.497c1.975,1.973 5.154,1.973 7.13,0zm-76.766,-69.636l26.443,26.446l7.208,20.097l-52.353,-4.28l0.108,-23.668l18.594,-18.595zm-119.121,119.13l56.172,27.778l-1.646,23.91l-53.077,-9.815l-21.659,-21.666l20.21,-20.207zm45.893,86.318l-31.867,-31.876l39.805,7.358l-1.221,17.798l-6.717,6.72zm73.198,-71.112c-1.341,0 -2.622,0.536 -3.556,1.473l-52.077,52.074l1.664,-24.261l64.062,-71.01l16.475,6.151l-8.561,49.883l-13.644,-12.838c-0.938,-0.936 -3.028,-1.472 -4.363,-1.472zm73.228,71.145l-11.207,-11.207l-1.987,-50.2l37.991,23.796l3.329,9.483l-28.126,28.128zm69.654,-69.645l-33.62,33.612l-5.556,-15.787l33.058,-54.909l31.418,-15.754l-7.088,63.91l-11.087,-11.072c-1.965,-1.973 -5.155,-1.973 -7.125,0zm76.766,69.633l-8.243,-8.253l-2.173,-20.528l25.233,-45.399l18.391,40.96l-33.208,33.22z"/>
    </g>
</svg>
