<?xml version="1.0" encoding="UTF-8" standalone="no"?>
<svg
   xmlns:dc="http://purl.org/dc/elements/1.1/"
   xmlns:cc="http://creativecommons.org/ns#"
   xmlns:rdf="http://www.w3.org/1999/02/22-rdf-syntax-ns#"
   xmlns:svg="http://www.w3.org/2000/svg"
   xmlns="http://www.w3.org/2000/svg"
   xmlns:sodipodi="http://sodipodi.sourceforge.net/DTD/sodipodi-0.dtd"
   xmlns:inkscape="http://www.inkscape.org/namespaces/inkscape"
   inkscape:version="1.0rc1 (09960d6, 2020-04-09)"
   sodipodi:docname="MysteriumVPN icon.ai.svg"
   viewBox="0 0 682.66669 682.66669"
   height="682.66669"
   width="682.66669"
   xml:space="preserve"
   id="svg877"
   version="1.1"><metadata
     id="metadata883"><rdf:RDF><cc:Work
         rdf:about=""><dc:format>image/svg+xml</dc:format><dc:type
           rdf:resource="http://purl.org/dc/dcmitype/StillImage" /><dc:title></dc:title></cc:Work></rdf:RDF></metadata><defs
     id="defs881"><linearGradient
       id="linearGradient905"
       spreadMethod="pad"
       gradientTransform="matrix(-458.88136,458.88136,458.88136,458.88136,485.44068,26.563661)"
       gradientUnits="userSpaceOnUse"
       y2="0"
       x2="1"
       y1="0"
       x1="0"><stop
         id="stop899"
         offset="0"
         style="stop-opacity:1;stop-color:#262261" /><stop
         id="stop901"
         offset="0.13544918"
         style="stop-opacity:1;stop-color:#262261" /><stop
         id="stop903"
         offset="1"
         style="stop-opacity:1;stop-color:#9e1f63" /></linearGradient><clipPath
       id="clipPath915"
       clipPathUnits="userSpaceOnUse"><path
         inkscape:connector-curvature="0"
         id="path913"
         d="M 0,512 H 512 V 0 H 0 Z" /></clipPath></defs><sodipodi:namedview
     inkscape:current-layer="g885"
     inkscape:window-maximized="0"
     inkscape:window-y="23"
     inkscape:window-x="2987"
     inkscape:cy="321.33334"
     inkscape:cx="339.52941"
     inkscape:zoom="0.35355339"
     showgrid="false"
     id="namedview879"
     inkscape:window-height="1395"
     inkscape:window-width="2133"
     inkscape:pageshadow="2"
     inkscape:pageopacity="0"
     guidetolerance="10"
     gridtolerance="10"
     objecttolerance="10"
     borderopacity="1"
     bordercolor="#666666"
     pagecolor="#ffffff" /><g
     transform="matrix(1.3333333,0,0,-1.3333333,0,682.66667)"
     inkscape:label="MysteriumVPN icon"
     inkscape:groupmode="layer"
     id="g885"><g
       transform="matrix(0.89941408,0,0,0.89942111,25.75001,25.746398)"
       id="g887"><g
         id="g889"><g
           id="g895"><g
             id="g897"><path
               inkscape:connector-curvature="0"
               id="path907"
               style="fill:url(#linearGradient905);stroke:none;stroke-width:0.990228"
               d="M 83.782515,509.49839 C 38.813291,509.03992 2.5016292,472.44306 2.5016292,427.36492 v 0 -342.720887 c 0,-45.364326 36.7750878,-82.1384226 82.1384228,-82.1384226 v 0 H 427.36094 c 45.36235,0 82.13743,36.7740966 82.13743,82.1384226 v 0 342.720887 c 0,45.07814 -36.31166,81.675 -81.28088,82.13347 v 0 z" /></g></g></g></g><g
       transform="matrix(0.89111002,0,0,0.89111002,26.076052,19.338111)"
       id="g909"><g
         clip-path="url(#clipPath915)"
         id="g911"><g
           transform="translate(420.7246,216.6035)"
           id="g917"><path
             inkscape:connector-curvature="0"
             id="path919"
             style="fill:#ffffff;fill-opacity:1;fill-rule:nonzero;stroke:none"
             d="m 0,0 -28.913,54.925 c -1.437,2.73 0.49,6.02 3.574,6.102 l 4.633,0.123 c 1.659,0.044 3.264,-0.6 4.433,-1.78 L 22.587,20.145 C 24.909,17.8 24.909,14.022 22.586,11.679 L 9.595,-1.433 C 6.733,-4.319 1.893,-3.597 0,0 m -35.982,-38.803 -12.501,12.616 c -2.113,2.131 -2.33,5.494 -0.51,7.88 l 22.3,29.239 c 2.665,3.495 8.056,3.043 10.104,-0.846 L -5.601,-10.79 c 1.224,-2.323 0.798,-5.17 -1.049,-7.035 l -20.788,-20.979 c -2.354,-2.374 -6.192,-2.374 -8.544,0.001 m -131,0.023 -32.131,32.414 c -1.818,1.833 -2.262,4.621 -1.106,6.928 l 2.133,4.255 c 1.426,2.847 4.824,4.088 7.75,2.831 l 40.381,-17.343 c 1.83,-0.786 3.152,-2.428 3.531,-4.383 l 1.435,-7.411 c 0.378,-1.953 -0.235,-3.966 -1.635,-5.379 l -11.816,-11.914 c -2.353,-2.372 -6.189,-2.372 -8.542,0.002 m -129.578,-1.433 -26.085,26.324 c -2.771,2.796 -2.153,7.455 1.25,9.434 l 21.714,12.621 c 3.955,2.298 8.926,-0.483 9.035,-5.056 l 0.971,-40.392 c 0.027,-1.095 -0.394,-2.153 -1.165,-2.931 -1.575,-1.589 -4.144,-1.589 -5.72,0 m -23.527,87.567 20.517,6.536 c 3.822,1.217 7.742,-1.577 7.838,-5.587 l 0.483,-20.083 c 0.053,-2.195 -1.093,-4.242 -2.991,-5.345 L -331.359,1.301 c -2.369,-1.377 -5.367,-0.98 -7.295,0.966 l -9.342,9.427 c -2.323,2.344 -2.323,6.122 0,8.467 l 25.462,25.696 c 0.683,0.689 1.523,1.203 2.447,1.497 m 96.16,89.393 4.828,-4.87 c 0.769,-0.776 1.312,-1.746 1.572,-2.807 l 14.122,-57.813 c 1.17,-4.791 -3.607,-8.877 -8.158,-6.978 l -28.781,12.006 c -2.501,1.043 -3.996,3.632 -3.649,6.32 l 6.043,46.856 c 0.169,1.309 0.764,2.526 1.693,3.464 l 3.786,3.821 c 2.353,2.375 6.191,2.375 8.544,0.001 m 130.988,0.009 1.96,-1.98 c 0.742,-0.748 1.274,-1.677 1.542,-2.695 l 4.169,-15.767 c 0.556,-2.101 -0.066,-4.339 -1.626,-5.853 l -22.465,-21.803 c -3.218,-3.123 -8.599,-1.753 -9.932,2.529 l -5.463,17.55 c -0.661,2.125 -0.096,4.441 1.471,6.022 l 21.8,21.997 c 2.352,2.375 6.191,2.375 8.544,0 m 29.019,-62.133 -7.535,28.501 c -1.179,4.458 4.309,7.597 7.554,4.321 l 26.372,-26.619 c 3.708,-3.743 1.153,-10.106 -4.114,-10.245 l -16.302,-0.434 c -2.789,-0.073 -5.262,1.779 -5.975,4.476 m 6.724,-14.442 10.301,0.274 c 2.29,0.06 4.415,-1.184 5.482,-3.211 l 13.52,-25.685 c 1.09,-2.072 0.88,-4.587 -0.54,-6.449 L -55.07,-9.816 c -2.214,-2.904 -6.485,-3.18 -9.055,-0.586 l -5.581,5.632 c -1.341,1.354 -1.962,3.263 -1.673,5.146 l 8.398,54.706 c 0.441,2.875 2.877,5.022 5.785,5.099 m -82.876,-28.176 11.209,4.205 c 2.241,0.841 4.766,0.272 6.432,-1.446 l 14.146,-14.606 c 2.278,-2.351 2.257,-6.095 -0.05,-8.419 l -19.53,-19.692 c -3.403,-3.431 -9.257,-1.651 -10.175,3.092 l -5.825,30.092 c -0.558,2.881 1.045,5.744 3.793,6.774 m -35.002,6.237 17.174,-7.164 c 1.858,-0.775 3.206,-2.431 3.588,-4.408 l 3.266,-16.869 c 0.733,-3.784 -3.067,-6.845 -6.608,-5.324 l -27.55,11.833 c -3.18,1.365 -4.554,5.127 -3.003,8.22 l 5.44,10.856 c 1.416,2.825 4.776,4.072 7.693,2.856 m -3.043,12.084 -8.218,3.428 c -1.764,0.736 -3.073,2.267 -3.527,4.124 l -10.544,43.164 c -1.093,4.473 4.396,7.544 7.636,4.275 l 22.976,-23.175 c 1.232,-1.244 1.861,-2.962 1.724,-4.707 l -1.735,-22.031 c -0.321,-4.079 -4.535,-6.654 -8.312,-5.078 m 55.495,-1.115 -25.583,-9.596 c -1.432,-0.538 -3.016,-0.509 -4.428,0.08 l -4.108,1.714 c -2.401,1.001 -3.885,3.431 -3.681,6.023 l 2.382,30.231 c 0.111,1.419 0.723,2.751 1.724,3.761 l 15.488,15.63 c 3.192,3.222 8.667,1.885 10.015,-2.446 l 11.822,-37.978 c 0.947,-3.044 -0.646,-6.299 -3.631,-7.419 m 45.031,16.893 -24.386,-9.148 c -3.236,-1.214 -6.827,0.543 -7.854,3.843 l -2.127,6.831 c -0.674,2.164 -0.072,4.524 1.555,6.103 l 24.517,23.796 c 1.989,1.929 5.319,1.004 6.028,-1.675 l 5.969,-22.582 c 0.789,-2.985 -0.81,-6.084 -3.702,-7.168 m -151.03,-5.524 33.185,-13.844 c 3.217,-1.342 4.623,-5.129 3.061,-8.245 l -13.442,-26.822 c -1.843,-3.678 -6.752,-4.461 -9.648,-1.539 l -7.521,7.587 c -0.605,0.61 -1.073,1.344 -1.37,2.15 l -12.222,33.077 c -1.821,4.929 3.109,9.659 7.957,7.636 m -44.52,-34.946 26.552,-8.863 c 4.228,-1.412 5.505,-6.772 2.367,-9.938 l -29.546,-29.817 c -2.294,-2.316 -6.244,-0.745 -6.322,2.513 l -0.968,40.255 c -0.1,4.166 3.964,7.169 7.917,5.85 m 22.086,37.685 11.162,-30.211 c 1.366,-3.696 -2.154,-7.33 -5.892,-6.083 l -31.727,10.591 c -2.405,0.803 -4.048,3.027 -4.108,5.561 l -0.284,11.799 c -0.064,2.67 1.641,5.064 4.187,5.875 l 19.195,6.114 c 3.064,0.976 6.353,-0.63 7.467,-3.646 m -7.153,14.223 -35.118,-11.188 c -3.338,-1.062 -5.862,3.063 -3.397,5.551 l 39.189,39.548 c 2.679,2.703 7.259,0.464 6.772,-3.31 l -3.307,-25.641 c -0.299,-2.317 -1.913,-4.252 -4.139,-4.96 m 164.557,-58.146 -14.946,15.429 c -3.013,3.113 -1.848,8.295 2.208,9.816 l 24.029,9.014 c 4.303,1.614 8.755,-2 8.057,-6.544 L -78.77,18.01 c -0.75,-4.883 -6.74,-6.83 -10.217,-3.322 l -4.662,4.707 c -0.001,0.001 -0.002,0.001 -0.002,0.001 M 33.158,23.657 -93.666,151.673 c -0.936,0.945 -2.213,1.478 -3.545,1.478 -1.333,0 -2.609,-0.533 -3.546,-1.478 l -57.671,-58.198 c -2.352,-2.374 -6.19,-2.374 -8.543,0 l -57.683,58.187 c -1.878,1.891 -5.219,1.889 -7.091,-0.002 L -358.567,23.674 c -4.25,-4.29 -4.25,-11.203 0.001,-15.492 l 61.321,-61.883 c 1.872,-1.892 5.219,-1.892 7.091,0 l 57.671,58.198 c 2.352,2.375 6.19,2.375 8.543,0.001 l 57.683,-58.189 c 0.939,-0.947 2.213,-1.478 3.545,-1.478 1.333,0 2.607,0.531 3.546,1.478 l 57.698,58.176 c 2.354,2.373 6.191,2.372 8.543,-0.002 l 57.669,-58.201 c 0.936,-0.945 2.213,-1.478 3.545,-1.478 1.333,0 2.609,0.533 3.546,1.478 L 33.157,8.165 c 4.25,4.29 4.25,11.202 0.001,15.492" /></g></g></g></g></svg>
