<svg width="1024" height="1024" viewBox="0 0 512 512" fill="none" xmlns="http://www.w3.org/2000/svg">
    <path d="M0 160C0 103.995 0 75.9921 10.8993 54.6009C20.4867 35.7847 35.7847 20.4867 54.6009 10.8993C75.9921 0 103.995 0 160 0H352C408.005 0 436.008 0 457.399 10.8993C476.215 20.4867 491.513 35.7847 501.101 54.6009C512 75.9921 512 103.995 512 160V352C512 408.005 512 436.008 501.101 457.399C491.513 476.215 476.215 491.513 457.399 501.101C436.008 512 408.005 512 352 512H160C103.995 512 75.9921 512 54.6009 501.101C35.7847 491.513 20.4867 476.215 10.8993 457.399C0 436.008 0 408.005 0 352V160Z" fill="url(#paint0_linear_13060_41396)"/>
    <path d="M70.8672 369.066V318.269H87.7996V369.066H70.8672ZM87.7996 318.269V301.337H121.664V318.269H87.7996ZM87.7996 385.999V369.066H138.597V335.201H121.664V318.269H138.597V267.472H155.529V385.999H87.7996Z" fill="white"/>
    <path d="M172.441 369.064V352.131H189.374V369.064H172.441ZM189.374 385.996V369.064H240.171V352.131H189.374V335.199H240.171V318.266H257.104V385.996H189.374ZM189.374 318.266V301.334H240.171V318.266H189.374Z" fill="white"/>
    <path d="M341.804 335.203V318.27H358.736V335.203H341.804ZM274.074 386V301.338H291.007V318.27H307.939V335.203H291.007V386H274.074ZM307.939 318.27V301.338H341.804V318.27H307.939Z" fill="white"/>
    <path d="M426.45 385.999V369.066H443.382V385.999H426.45ZM409.517 369.066V352.134H426.45V369.066H409.517ZM409.517 335.201V318.269H426.45V335.201H409.517ZM426.45 318.269V301.337H443.382V318.269H426.45ZM375.652 385.999V267.472H392.585V335.201H409.517V352.134H392.585V385.999H375.652Z" fill="white"/>
    <path d="M100.773 207.932V175.16H117.159V207.932H100.773ZM133.545 240.705V175.16H149.932V240.705H133.545ZM68 240.705V158.773H100.773V175.16H84.3864V240.705H68ZM117.159 175.16V158.773H133.545V175.16H117.159Z" fill="white"/>
    <path d="M182.679 240.705V224.319H231.838V240.705H182.679ZM166.293 191.546V158.773H182.679V191.546H166.293ZM231.838 224.319V207.932H182.679V191.546H231.838V158.773H248.225V224.319H231.838Z" fill="white"/>
    <path d="M264.617 240.705V224.319H330.163V240.705H264.617ZM330.163 224.319V207.932H346.549V224.319H330.163ZM281.004 207.932V191.546H330.163V207.932H281.004ZM264.617 191.546V175.16H281.004V191.546H264.617ZM281.004 175.16V158.773H330.163V175.16H281.004Z" fill="white"/>
    <path d="M395.734 240.704V224.318H428.506V240.704H395.734ZM428.506 224.318V207.932H444.893V224.318H428.506ZM379.347 224.318V175.159H362.961V158.773H379.347V126H395.734V158.773H412.12V175.159H395.734V224.318H379.347Z" fill="white"/>
    <defs>
        <linearGradient id="paint0_linear_13060_41396" x1="256" y1="0" x2="256" y2="512" gradientUnits="userSpaceOnUse">
            <stop/>
            <stop offset="1"/>
        </linearGradient>
    </defs>
</svg>
